<svg width="26" height="26" viewBox="0 0 26 26" fill="none" xmlns="http://www.w3.org/2000/svg">
<path d="M13.2549 10.6809V15.6206H20.1195C19.8181 17.2092 18.9135 18.5544 17.5568 19.4588L21.6965 22.6709C24.1084 20.4446 25.4998 17.1746 25.4998 13.29C25.4998 12.3856 25.4187 11.5158 25.2679 10.681L13.2549 10.6809Z" fill="#4285F4"/>
<path d="M6.10663 15.4278L5.17299 16.1425L1.86816 18.7167C3.96698 22.8795 8.26865 25.7553 13.2548 25.7553C16.6986 25.7553 19.5859 24.6189 21.6963 22.6709L17.5567 19.4588C16.4203 20.2241 14.9708 20.688 13.2548 20.688C9.93841 20.688 7.12074 18.4501 6.11185 15.4352L6.10663 15.4278Z" fill="#34A853"/>
<path d="M1.86819 7.28332C0.998562 8.99941 0.5 10.9359 0.5 12.9999C0.5 15.0639 0.998562 17.0004 1.86819 18.7165C1.86819 18.728 6.11228 15.4233 6.11228 15.4233C5.85717 14.658 5.70639 13.8464 5.70639 12.9998C5.70639 12.1532 5.85717 11.3415 6.11228 10.5762L1.86819 7.28332Z" fill="#FBBC05"/>
<path d="M13.255 5.32365C15.1335 5.32365 16.8033 5.97299 18.1368 7.22534L21.7894 3.57275C19.5746 1.50876 16.699 0.244751 13.255 0.244751C8.26891 0.244751 3.96697 3.10888 1.86816 7.28333L6.11212 10.5765C7.12088 7.5616 9.93867 5.32365 13.255 5.32365Z" fill="#EA4335"/>
</svg>
